<svg width="41" height="41" viewBox="0 0 41 41" fill="none" xmlns="http://www.w3.org/2000/svg">
<path d="M20.5 0.916687C9.68999 0.916687 0.916656 9.69002 0.916656 20.5C0.916656 31.31 9.68999 40.0834 20.5 40.0834C31.31 40.0834 40.0833 31.31 40.0833 20.5C40.0833 9.69002 31.31 0.916687 20.5 0.916687ZM20.5 6.79169C23.7508 6.79169 26.375 9.41585 26.375 12.6667C26.375 15.9175 23.7508 18.5417 20.5 18.5417C17.2492 18.5417 14.625 15.9175 14.625 12.6667C14.625 9.41585 17.2492 6.79169 20.5 6.79169ZM20.5 34.6C18.1732 34.6 15.8826 34.0242 13.8324 32.924C11.7822 31.8237 10.0362 30.2332 8.74999 28.2942C8.80874 24.3971 16.5833 22.2625 20.5 22.2625C24.3971 22.2625 32.1912 24.3971 32.25 28.2942C30.9638 30.2332 29.2178 31.8237 27.1676 32.924C25.1174 34.0242 22.8268 34.6 20.5 34.6Z" fill="#943280"/>
</svg>
