<svg width="18" height="18" viewBox="0 0 18 18" fill="none" xmlns="http://www.w3.org/2000/svg">
<path d="M10.6875 13.5H2.25L2.24831 5.00963L8.67994 9.46238C8.77398 9.52745 8.88563 9.56231 9 9.56231C9.11437 9.56231 9.22602 9.52745 9.32006 9.46238L15.75 5.01187V10.125H16.875V4.5C16.8746 4.20177 16.7559 3.91588 16.545 3.705C16.3341 3.49412 16.0482 3.37545 15.75 3.375H2.25C1.95172 3.3753 1.66575 3.49392 1.45483 3.70483C1.24392 3.91575 1.1253 4.20172 1.125 4.5V13.5C1.12545 13.7982 1.24412 14.0841 1.455 14.295C1.66588 14.5059 1.95177 14.6246 2.25 14.625H10.6875V13.5ZM14.5119 4.5L9 8.316L3.48806 4.5H14.5119Z" fill="#943280"/>
<path d="M14.625 15.75C15.8676 15.75 16.875 14.7426 16.875 13.5C16.875 12.2574 15.8676 11.25 14.625 11.25C13.3824 11.25 12.375 12.2574 12.375 13.5C12.375 14.7426 13.3824 15.75 14.625 15.75Z" fill="#943280"/>
</svg>
