<svg width="113" height="40" viewBox="0 0 113 40" fill="none" xmlns="http://www.w3.org/2000/svg">
<path fill-rule="evenodd" clip-rule="evenodd" d="M81.6342 40C74.6855 36.0426 70 28.5685 70 20C70 11.4315 74.6855 3.95737 81.6342 0H20C8.95435 0 0 8.9543 0 20C0 31.0457 8.95435 40 20 40H81.6342Z" fill="#943280"/>
<path d="M22.2852 25V15.1973H25.0742C25.9219 15.1973 26.5941 15.4046 27.0908 15.8193C27.5876 16.234 27.8359 16.7741 27.8359 17.4395C27.8359 17.9954 27.6855 18.4785 27.3848 18.8887C27.084 19.2988 26.6693 19.5905 26.1406 19.7637V19.791C26.8014 19.8685 27.3301 20.1191 27.7266 20.543C28.123 20.9622 28.3213 21.5091 28.3213 22.1836C28.3213 23.0221 28.0205 23.7012 27.4189 24.2207C26.8174 24.7402 26.0586 25 25.1426 25H22.2852ZM23.4336 16.2363V19.4014H24.6094C25.2383 19.4014 25.7327 19.251 26.0928 18.9502C26.4528 18.6449 26.6328 18.2165 26.6328 17.665C26.6328 16.7126 26.0062 16.2363 24.7529 16.2363H23.4336ZM23.4336 20.4336V23.9609H24.9922C25.6667 23.9609 26.1885 23.8014 26.5576 23.4824C26.9313 23.1634 27.1182 22.7259 27.1182 22.1699C27.1182 21.0124 26.3298 20.4336 24.7529 20.4336H23.4336ZM33.0859 25.1641C32.0514 25.1641 31.2243 24.8382 30.6045 24.1865C29.9893 23.5303 29.6816 22.6621 29.6816 21.582C29.6816 20.4062 30.0029 19.488 30.6455 18.8271C31.2881 18.1663 32.1562 17.8359 33.25 17.8359C34.2936 17.8359 35.1071 18.1572 35.6904 18.7998C36.2783 19.4424 36.5723 20.3333 36.5723 21.4727C36.5723 22.5892 36.2555 23.4847 35.6221 24.1592C34.9932 24.8291 34.1478 25.1641 33.0859 25.1641ZM33.168 18.7793C32.4479 18.7793 31.8783 19.0254 31.459 19.5176C31.0397 20.0052 30.8301 20.6797 30.8301 21.541C30.8301 22.3704 31.042 23.0244 31.4658 23.5029C31.8896 23.9814 32.457 24.2207 33.168 24.2207C33.8926 24.2207 34.4486 23.986 34.8359 23.5166C35.2279 23.0472 35.4238 22.3796 35.4238 21.5137C35.4238 20.6387 35.2279 19.9642 34.8359 19.4902C34.4486 19.0163 33.8926 18.7793 33.168 18.7793ZM44.2285 25H43.2168V19.415C43.1165 19.611 42.9639 19.8867 42.7588 20.2422L39.5254 25H38.3633V18H39.3887V23.5166C39.4434 23.3844 39.5618 23.1589 39.7441 22.8398L43.0664 18H44.2285V25ZM43.8184 14.5957C43.75 15.2383 43.4902 15.7464 43.0391 16.1201C42.5924 16.4893 42.0319 16.6738 41.3574 16.6738C40.6647 16.6738 40.0996 16.4893 39.6621 16.1201C39.2292 15.7464 38.9922 15.2383 38.9512 14.5957H40.0586C40.1224 15.4525 40.5599 15.8809 41.3711 15.8809C41.7357 15.8809 42.0365 15.7692 42.2734 15.5459C42.5104 15.318 42.6562 15.0013 42.7109 14.5957H43.8184ZM50.8936 18.957H48.7949V25H47.6738V18.957H45.5684V18H50.8936V18.957ZM58.1055 25H57.0938V19.415C56.9935 19.611 56.8408 19.8867 56.6357 20.2422L53.4023 25H52.2402V18H53.2656V23.5166C53.3203 23.3844 53.4388 23.1589 53.6211 22.8398L56.9434 18H58.1055V25Z" fill="#FDFDFD"/>
<circle cx="93" cy="20" r="20" fill="#943280"/>
<path d="M88.5 14.5C88.5 16.981 90.519 19 93 19C95.481 19 97.5 16.981 97.5 14.5C97.5 12.019 95.481 10 93 10C90.519 10 88.5 12.019 88.5 14.5ZM101 29H102V28C102 24.141 98.859 21 95 21H91C87.14 21 84 24.141 84 28V29H101Z" fill="white"/>
</svg>
