<svg width="18" height="18" viewBox="0 0 18 18" fill="none" xmlns="http://www.w3.org/2000/svg">
<path d="M13.5 7.3125H12.375C12.3746 6.86508 12.1966 6.43612 11.8802 6.11975C11.5639 5.80338 11.1349 5.62545 10.6875 5.625V4.5C11.4331 4.50089 12.148 4.7975 12.6753 5.32475C13.2025 5.852 13.4991 6.56685 13.5 7.3125Z" fill="#943280"/>
<path d="M15.75 7.3125H14.625C14.6238 6.26858 14.2086 5.26775 13.4704 4.52958C12.7323 3.79142 11.7314 3.37619 10.6875 3.375V2.25C12.0297 2.25149 13.3165 2.78534 14.2656 3.73442C15.2147 4.6835 15.7485 5.9703 15.75 7.3125Z" fill="#943280"/>
<path d="M11.4373 12.0836L12.6973 10.8236C12.8659 10.6549 13.0804 10.5394 13.314 10.4914C13.5477 10.4434 13.7903 10.4651 14.0118 10.5536L15.5463 11.1679C15.7725 11.2584 15.9664 11.4146 16.1029 11.6163C16.2395 11.818 16.3125 12.056 16.3124 12.2996V15.0902C16.3128 15.2561 16.2794 15.4202 16.2141 15.5727C16.1489 15.7252 16.0532 15.8628 15.9329 15.977C15.8126 16.0912 15.6703 16.1797 15.5147 16.237C15.359 16.2943 15.1933 16.3192 15.0277 16.3103C4.27157 15.6409 2.0992 6.53063 1.69589 3.042C1.67635 2.87145 1.69315 2.6987 1.74517 2.5351C1.79719 2.37151 1.88326 2.22078 1.99771 2.09283C2.11216 1.96488 2.2524 1.86261 2.40921 1.79275C2.56602 1.72289 2.73585 1.68703 2.90751 1.6875H5.64857C5.89218 1.6875 6.13019 1.76048 6.33192 1.89704C6.53365 2.03359 6.68983 2.22746 6.78032 2.45363L7.39401 3.98813C7.48258 4.20963 7.5042 4.45224 7.45621 4.68591C7.40821 4.91958 7.29271 5.13403 7.12401 5.30269L5.86401 6.56269C5.86401 6.56269 6.56264 11.4744 11.4373 12.0836Z" fill="#943280"/>
</svg>
